<svg width="56" height="23" viewBox="0 0 56 23" fill="none" xmlns="http://www.w3.org/2000/svg">
<g clip-path="url(#clip0_2_1173)">
<path d="M25.9931 0H4.22146C1.89066 0 0 1.79655 0 4.01132V13.3886C0 15.6034 1.89066 17.3999 4.22146 17.3999H25.9931C28.3239 17.3999 30.2145 15.6034 30.2145 13.3886V4.01132C30.2173 1.79655 28.3267 0 25.9931 0Z" fill="#0D3F7A"/>
<path d="M10.2034 13.4728H8.49271V9.30103H4.07747V13.4728H2.36121V4.08762H4.07747V7.99373H8.49271V4.08762H10.2034V13.4728Z" fill="white"/>
<path d="M19.4573 4.08762V10.3637C19.4573 10.9003 19.3604 11.3711 19.1694 11.7762C18.9785 12.1813 18.7127 12.5179 18.3805 12.7889C18.0455 13.0598 17.6552 13.2624 17.2068 13.3991C16.7584 13.5333 16.2795 13.6017 15.7674 13.6017C15.2387 13.6017 14.7487 13.5333 14.2974 13.3991C13.8462 13.265 13.4587 13.0598 13.1265 12.7889C12.7971 12.5179 12.5397 12.1813 12.3542 11.7762C12.1687 11.3711 12.0774 10.9029 12.0774 10.3637V4.08762H13.7881V10.3637C13.7881 10.6977 13.8352 10.9871 13.9265 11.2317C14.0179 11.4737 14.1507 11.6763 14.3224 11.8341C14.494 11.9919 14.7016 12.1103 14.9452 12.1865C15.1888 12.2628 15.4629 12.2997 15.7674 12.2997C16.0691 12.2997 16.3459 12.2628 16.5923 12.1865C16.8386 12.1103 17.0462 11.9945 17.2151 11.8341C17.384 11.6763 17.5169 11.4737 17.6082 11.2317C17.6996 10.9897 17.7466 10.7004 17.7466 10.3637V4.08762H19.4573Z" fill="white"/>
<path d="M21.2871 13.4728V4.08762H24.6725C25.2068 4.08762 25.6857 4.13759 26.112 4.24018C26.5383 4.34013 26.8954 4.49533 27.1916 4.70049C27.485 4.90566 27.7093 5.17133 27.8671 5.48961C28.022 5.81053 28.1023 6.1893 28.1023 6.62854C28.1023 7.0573 27.9805 7.44398 27.7369 7.78853C27.4933 8.13314 27.1363 8.39881 26.6657 8.5882C26.9508 8.66186 27.1972 8.76704 27.4075 8.90644C27.6179 9.0459 27.7923 9.21161 27.9307 9.39836C28.0691 9.58775 28.1716 9.79553 28.238 10.0244C28.3072 10.2532 28.3404 10.4873 28.3404 10.7345C28.3404 11.187 28.2629 11.5816 28.1051 11.9235C27.9501 12.2655 27.7231 12.5522 27.4269 12.781C27.1307 13.0099 26.7709 13.1834 26.3473 13.2992C25.9238 13.4149 25.4449 13.4728 24.9134 13.4728H21.2871ZM23.0034 8.03844H24.6864C25.2206 8.03844 25.6359 7.92271 25.9376 7.69384C26.2394 7.46501 26.3888 7.13886 26.3888 6.71802C26.3888 6.25505 26.2504 5.91835 25.9709 5.7132C25.694 5.50802 25.2594 5.40281 24.6725 5.40281H23.0034V8.03844ZM23.0034 9.23787V12.1708H24.9107C25.1902 12.1708 25.4393 12.1365 25.6525 12.0682C25.8684 11.9998 26.0483 11.9024 26.1923 11.7736C26.3362 11.6473 26.4442 11.4947 26.5189 11.3185C26.5909 11.1423 26.6269 10.9476 26.6269 10.732C26.6269 10.269 26.4968 9.90335 26.2394 9.63509C25.9819 9.36941 25.5639 9.23529 24.9854 9.23529H23.0034V9.23787Z" fill="white"/>
<path d="M31.9307 13.4728V4.08762H35.3161C35.8504 4.08762 36.3293 4.13759 36.7556 4.24018C37.1819 4.34013 37.5389 4.49533 37.8352 4.70049C38.1286 4.90566 38.3528 5.17133 38.5106 5.48961C38.6656 5.81053 38.7459 6.1893 38.7459 6.62854C38.7459 7.0573 38.6241 7.44398 38.3805 7.78853C38.1369 8.13314 37.7798 8.39881 37.3092 8.5882C37.5943 8.66186 37.8407 8.76704 38.0511 8.90644C38.2615 9.0459 38.4358 9.21161 38.5742 9.39836C38.7127 9.58775 38.8151 9.79553 38.8843 10.0244C38.9535 10.2532 38.9867 10.4873 38.9867 10.7345C38.9867 11.187 38.9092 11.5816 38.7514 11.9235C38.5964 12.2655 38.3694 12.5522 38.0732 12.781C37.777 13.0099 37.4171 13.1834 36.9936 13.2992C36.5701 13.4149 36.0912 13.4728 35.5597 13.4728H31.9307ZM33.6469 8.03844H35.33C35.8642 8.03844 36.2794 7.92271 36.5812 7.69384C36.8829 7.46501 37.0324 7.13886 37.0324 6.71802C37.0324 6.25505 36.894 5.91835 36.6144 5.7132C36.3376 5.50802 35.903 5.40281 35.3161 5.40281H33.6469V8.03844ZM33.6469 9.23787V12.1708H35.5542C35.8337 12.1708 36.0829 12.1365 36.296 12.0682C36.512 11.9998 36.6919 11.9024 36.8359 11.7736C36.9798 11.6473 37.0877 11.4947 37.1625 11.3185C37.2344 11.1423 37.2704 10.9476 37.2704 10.732C37.2704 10.269 37.1404 9.90335 36.8829 9.63509C36.6254 9.36941 36.2075 9.23529 35.6289 9.23529H33.6469V9.23787Z" fill="#0D3F7A"/>
<path d="M46.4688 9.28263H42.4134V12.1708H47.1553V13.4728H40.6971V4.08762H47.1082V5.40281H42.4134V7.99373H46.4688V9.28263Z" fill="#0D3F7A"/>
<path d="M52.1796 9.85601H50.2668V13.4728H48.5505V4.08762H52.0246C52.5893 4.08762 53.0931 4.14812 53.536 4.27174C53.9789 4.39537 54.3526 4.57423 54.6599 4.8136C54.9644 5.05296 55.1969 5.34757 55.3547 5.70002C55.5125 6.05253 55.5928 6.46019 55.5928 6.9258C55.5928 7.55443 55.4322 8.07788 55.1139 8.50136C54.7955 8.9249 54.3499 9.25105 53.7796 9.47723L55.9969 13.3886V13.4728H54.1588L52.1796 9.85601ZM50.2668 8.54613H52.0301C52.3374 8.54613 52.6059 8.50663 52.8384 8.43034C53.0682 8.3541 53.2619 8.24623 53.4142 8.10683C53.5692 7.97006 53.6827 7.80699 53.7602 7.6176C53.8378 7.42821 53.8765 7.22037 53.8765 6.99155C53.8765 6.75218 53.8405 6.53385 53.7685 6.33661C53.6966 6.14195 53.5858 5.9736 53.4364 5.8342C53.2869 5.6948 53.0959 5.58693 52.8634 5.51065C52.6308 5.43437 52.3512 5.39754 52.0246 5.39754H50.2668V8.54613Z" fill="#0D3F7A"/>
<path d="M3.80378 22.9132C3.76502 22.8763 3.74841 22.829 3.74841 22.7658V20.3249C3.74841 20.2618 3.76779 20.2144 3.80378 20.1776C3.83976 20.1408 3.89236 20.1223 3.95879 20.1223H5.48682C5.55049 20.1223 5.60032 20.1381 5.63354 20.1671C5.66676 20.196 5.68613 20.2381 5.68613 20.2933C5.68613 20.3485 5.66952 20.388 5.63354 20.4169C5.59755 20.4459 5.55049 20.459 5.48682 20.459H4.16641V21.3559H5.40378C5.46744 21.3559 5.51727 21.3718 5.55049 21.4007C5.58371 21.4296 5.60309 21.4717 5.60309 21.5269C5.60309 21.5796 5.58648 21.6216 5.55049 21.6532C5.51451 21.6848 5.46744 21.6979 5.40378 21.6979H4.16641V22.637H5.48682C5.61969 22.637 5.68613 22.6922 5.68613 22.8027C5.68613 22.8579 5.66952 22.8974 5.63354 22.9289C5.60032 22.9579 5.55049 22.9736 5.48682 22.9736H3.95879C3.89236 22.9684 3.84253 22.95 3.80378 22.9132Z" fill="#0D3F7A"/>
<path d="M6.56898 22.0136C6.53579 21.9847 6.51917 21.9452 6.51917 21.8952C6.51917 21.8452 6.53579 21.8032 6.56898 21.7742C6.60217 21.7453 6.64925 21.7295 6.71295 21.7295H7.596C7.65964 21.7295 7.70946 21.7453 7.73991 21.7742C7.77316 21.8032 7.78972 21.8452 7.78972 21.8952C7.78972 21.9452 7.77316 21.9847 7.73991 22.0136C7.70671 22.0425 7.65964 22.0557 7.596 22.0557H6.71295C6.64925 22.0557 6.59943 22.0425 6.56898 22.0136Z" fill="#0D3F7A"/>
<path d="M9.3455 22.8237C9.13789 22.708 8.9773 22.5397 8.86932 22.3187C8.75861 22.1004 8.70325 21.84 8.70325 21.5428C8.70325 21.2481 8.75861 20.9904 8.86932 20.7694C8.9801 20.5511 9.13789 20.3828 9.3455 20.2644C9.55311 20.146 9.79671 20.0881 10.0763 20.0881C10.259 20.0881 10.4306 20.1171 10.5967 20.1697C10.76 20.2249 10.9012 20.3038 11.023 20.4091C11.0756 20.4485 11.1033 20.5038 11.1033 20.5695C11.1033 20.6169 11.0894 20.6589 11.0617 20.6932C11.0341 20.7273 11.0008 20.7431 10.9621 20.7431C10.915 20.7431 10.8707 20.7247 10.8265 20.6905C10.6936 20.5932 10.5718 20.5248 10.4638 20.4854C10.3531 20.4459 10.2313 20.4275 10.0929 20.4275C9.78836 20.4275 9.55585 20.5222 9.39251 20.7142C9.22924 20.9062 9.14617 21.1797 9.14617 21.5375C9.14617 21.8978 9.22644 22.174 9.39251 22.3634C9.55585 22.5554 9.78836 22.6501 10.0929 22.6501C10.2257 22.6501 10.3475 22.6291 10.4555 22.5896C10.5634 22.5502 10.688 22.4818 10.8265 22.3871C10.8818 22.3529 10.9261 22.3345 10.9621 22.3345C11.0008 22.3345 11.0341 22.3503 11.0617 22.3845C11.0894 22.4187 11.1033 22.4581 11.1033 22.5081C11.1033 22.5765 11.0756 22.6291 11.023 22.6686C10.9012 22.7738 10.7572 22.8527 10.5967 22.9079C10.4334 22.9631 10.2617 22.9895 10.0763 22.9895C9.79671 23 9.55311 22.9421 9.3455 22.8237Z" fill="#0D3F7A"/>
<path d="M12.5374 22.8211C12.3353 22.7027 12.1775 22.5344 12.0668 22.3161C11.9561 22.0978 11.9008 21.8426 11.9008 21.5454C11.9008 21.2481 11.9561 20.9877 12.064 20.7694C12.1748 20.5511 12.3298 20.3828 12.5347 20.2644C12.7395 20.146 12.9803 20.0881 13.2571 20.0881C13.5367 20.0881 13.7776 20.146 13.9824 20.2644C14.1872 20.3801 14.345 20.5485 14.453 20.7694C14.5637 20.9877 14.6163 21.2455 14.6163 21.5428C14.6163 21.84 14.5609 22.0951 14.453 22.3161C14.3422 22.5344 14.1872 22.7054 13.9824 22.8237C13.7776 22.9421 13.5367 23 13.2571 23C12.9803 23 12.7395 22.9395 12.5374 22.8211ZM13.9408 22.3713C14.1042 22.1767 14.1844 21.9031 14.1844 21.5454C14.1844 21.1877 14.1042 20.9115 13.9408 20.7195C13.7776 20.5274 13.5505 20.4301 13.2544 20.4301C12.9637 20.4301 12.7367 20.5274 12.5762 20.7195C12.4156 20.9115 12.3326 21.1877 12.3326 21.5454C12.3326 21.9031 12.4129 22.1793 12.5762 22.3713C12.7395 22.566 12.9637 22.6607 13.2544 22.6607C13.5505 22.6607 13.7776 22.5633 13.9408 22.3713Z" fill="#0D3F7A"/>
<path d="M18.3867 20.1618C18.4254 20.2012 18.4448 20.2512 18.4448 20.3143V22.7922C18.4448 22.8553 18.4281 22.9026 18.3922 22.9368C18.3562 22.971 18.3091 22.9895 18.2482 22.9895C18.1901 22.9895 18.1431 22.971 18.1098 22.9368C18.0766 22.9026 18.06 22.8526 18.06 22.7922V20.9167L17.2461 22.4213C17.1936 22.516 17.1271 22.5633 17.0441 22.5633C16.9611 22.5633 16.8946 22.516 16.842 22.4213L16.0226 20.9325V22.7922C16.0226 22.8553 16.006 22.9026 15.9728 22.9368C15.9396 22.971 15.8925 22.9895 15.8316 22.9895C15.7735 22.9895 15.7264 22.971 15.6932 22.9342C15.6573 22.8974 15.6406 22.85 15.6406 22.7922V20.3143C15.6406 20.2539 15.66 20.2012 15.6988 20.1618C15.7375 20.1223 15.7873 20.1039 15.8482 20.1039C15.934 20.1039 16.0033 20.1513 16.0558 20.2486L17.0469 22.0925L18.0296 20.2486C18.0822 20.1513 18.1514 20.1039 18.2344 20.1039C18.2953 20.1039 18.3451 20.1223 18.3867 20.1618Z" fill="#0D3F7A"/>
<path d="M22.3116 20.1618C22.3503 20.2012 22.3697 20.2512 22.3697 20.3143V22.7922C22.3697 22.8553 22.3531 22.9026 22.3171 22.9368C22.2811 22.971 22.2341 22.9895 22.1732 22.9895C22.1151 22.9895 22.068 22.971 22.0347 22.9368C22.0016 22.9026 21.9849 22.8526 21.9849 22.7922V20.9167L21.1711 22.4213C21.1185 22.516 21.0521 22.5633 20.969 22.5633C20.886 22.5633 20.8195 22.516 20.7669 22.4213L19.9476 20.9325V22.7922C19.9476 22.8553 19.931 22.9026 19.8978 22.9368C19.8645 22.971 19.8175 22.9895 19.7566 22.9895C19.6984 22.9895 19.6514 22.971 19.6182 22.9342C19.5822 22.8974 19.5656 22.85 19.5656 22.7922V20.3143C19.5656 20.2539 19.5849 20.2012 19.6237 20.1618C19.6624 20.1223 19.7123 20.1039 19.7732 20.1039C19.859 20.1039 19.9282 20.1513 19.9808 20.2486L20.9718 22.0925L21.9545 20.2486C22.0071 20.1513 22.0763 20.1039 22.1593 20.1039C22.223 20.1039 22.2728 20.1223 22.3116 20.1618Z" fill="#0D3F7A"/>
<path d="M23.5494 22.9132C23.5106 22.8763 23.494 22.829 23.494 22.7658V20.3249C23.494 20.2618 23.5134 20.2144 23.5494 20.1776C23.5854 20.1408 23.638 20.1223 23.7044 20.1223H25.2324C25.2961 20.1223 25.3459 20.1381 25.3791 20.1671C25.4124 20.196 25.4317 20.2381 25.4317 20.2933C25.4317 20.3485 25.4151 20.388 25.3791 20.4169C25.3431 20.4459 25.2961 20.459 25.2324 20.459H23.912V21.3559H25.1494C25.213 21.3559 25.2629 21.3718 25.2961 21.4007C25.3293 21.4296 25.3487 21.4717 25.3487 21.5269C25.3487 21.5796 25.3321 21.6216 25.2961 21.6532C25.2601 21.6848 25.213 21.6979 25.1494 21.6979H23.912V22.637H25.2324C25.3653 22.637 25.4317 22.6922 25.4317 22.8027C25.4317 22.8579 25.4151 22.8974 25.3791 22.9289C25.3459 22.9579 25.2961 22.9736 25.2324 22.9736H23.7044C23.638 22.9684 23.5854 22.95 23.5494 22.9132Z" fill="#0D3F7A"/>
<path d="M28.6785 22.8211C28.6785 22.8684 28.6591 22.9105 28.6176 22.9447C28.5761 22.9789 28.5318 22.9947 28.4792 22.9947C28.4017 22.9947 28.3408 22.9605 28.2937 22.8948L27.7373 22.0557C27.6737 21.9583 27.6045 21.8899 27.5352 21.8531C27.4632 21.8136 27.3692 21.7952 27.2529 21.7952H26.7823V22.779C26.7823 22.8448 26.763 22.8948 26.727 22.9316C26.6882 22.9684 26.6384 22.9868 26.5719 22.9868C26.5083 22.9868 26.4557 22.9684 26.4169 22.9316C26.3781 22.8948 26.3588 22.8421 26.3588 22.779V20.3249C26.3588 20.2618 26.3781 20.2144 26.4141 20.1776C26.4501 20.1408 26.5027 20.1223 26.5692 20.1223H27.6017C27.9255 20.1223 28.1719 20.1933 28.3436 20.3328C28.5124 20.4722 28.5982 20.6773 28.5982 20.9456C28.5982 21.1692 28.5318 21.3507 28.4017 21.4875C28.2716 21.6269 28.0861 21.7137 27.8453 21.7505C27.9173 21.7689 27.9809 21.8032 28.0391 21.8505C28.0972 21.8979 28.1553 21.9662 28.2107 22.053L28.637 22.708C28.6647 22.7448 28.6785 22.7816 28.6785 22.8211ZM27.5519 21.4586C27.7677 21.4586 27.9283 21.4165 28.0308 21.3349C28.1359 21.2534 28.1858 21.1271 28.1858 20.9535C28.1858 20.7799 28.1331 20.6563 28.0308 20.5774C27.9283 20.4985 27.7677 20.459 27.5491 20.459H26.774V21.4586H27.5519Z" fill="#0D3F7A"/>
<path d="M30.1814 22.8237C29.9738 22.708 29.8132 22.5397 29.7053 22.3187C29.5945 22.1004 29.5392 21.84 29.5392 21.5428C29.5392 21.2481 29.5945 20.9904 29.7053 20.7694C29.816 20.5511 29.9738 20.3828 30.1814 20.2644C30.389 20.146 30.6326 20.0881 30.9122 20.0881C31.0949 20.0881 31.2665 20.1171 31.4326 20.1697C31.5959 20.2249 31.7371 20.3038 31.8589 20.4091C31.9115 20.4485 31.9391 20.5038 31.9391 20.5695C31.9391 20.6169 31.9253 20.6589 31.8977 20.6932C31.87 20.7273 31.8368 20.7431 31.798 20.7431C31.751 20.7431 31.7066 20.7247 31.6623 20.6905C31.5295 20.5932 31.4077 20.5248 31.2997 20.4854C31.189 20.4459 31.0672 20.4275 30.9288 20.4275C30.6243 20.4275 30.3918 20.5222 30.2285 20.7142C30.0651 20.9062 29.9821 21.1797 29.9821 21.5375C29.9821 21.8978 30.0624 22.174 30.2285 22.3634C30.3918 22.5554 30.6243 22.6501 30.9288 22.6501C31.0617 22.6501 31.1835 22.6291 31.2914 22.5896C31.3994 22.5502 31.5239 22.4818 31.6623 22.3871C31.7177 22.3529 31.762 22.3345 31.798 22.3345C31.8368 22.3345 31.87 22.3503 31.8977 22.3845C31.9253 22.4187 31.9391 22.4581 31.9391 22.5081C31.9391 22.5765 31.9115 22.6291 31.8589 22.6686C31.7371 22.7738 31.5932 22.8527 31.4326 22.9079C31.2693 22.9631 31.0976 22.9895 30.9122 22.9895C30.6326 23 30.389 22.9421 30.1814 22.8237Z" fill="#0D3F7A"/>
<path d="M32.9413 22.9132C32.9026 22.8763 32.886 22.829 32.886 22.7658V20.3249C32.886 20.2618 32.9054 20.2144 32.9413 20.1776C32.9773 20.1408 33.0299 20.1223 33.0963 20.1223H34.6244C34.688 20.1223 34.7379 20.1381 34.7711 20.1671C34.8043 20.196 34.8237 20.2381 34.8237 20.2933C34.8237 20.3485 34.8071 20.388 34.7711 20.4169C34.7351 20.4459 34.688 20.459 34.6244 20.459H33.3039V21.3559H34.5413C34.605 21.3559 34.6548 21.3718 34.688 21.4007C34.7213 21.4296 34.7406 21.4717 34.7406 21.5269C34.7406 21.5796 34.724 21.6216 34.688 21.6532C34.6521 21.6848 34.605 21.6979 34.5413 21.6979H33.3039V22.637H34.6244C34.7573 22.637 34.8237 22.6922 34.8237 22.8027C34.8237 22.8579 34.8071 22.8974 34.7711 22.9289C34.7379 22.9579 34.688 22.9736 34.6244 22.9736H33.0963C33.0299 22.9684 32.9773 22.95 32.9413 22.9132Z" fill="#0D3F7A"/>
<path d="M37.3375 22.9132C37.2987 22.8763 37.2821 22.829 37.2821 22.7658V20.3249C37.2821 20.2618 37.3015 20.2144 37.3375 20.1776C37.3735 20.1408 37.4261 20.1223 37.4925 20.1223H39.0205C39.0842 20.1223 39.134 20.1381 39.1672 20.1671C39.2005 20.196 39.2198 20.2381 39.2198 20.2933C39.2198 20.3485 39.2032 20.388 39.1672 20.4169C39.1313 20.4459 39.0842 20.459 39.0205 20.459H37.7001V21.3559H38.9375C39.0011 21.3559 39.0509 21.3718 39.0842 21.4007C39.1174 21.4296 39.1368 21.4717 39.1368 21.5269C39.1368 21.5796 39.1202 21.6216 39.0842 21.6532C39.0482 21.6848 39.0011 21.6979 38.9375 21.6979H37.7001V22.637H39.0205C39.1534 22.637 39.2198 22.6922 39.2198 22.8027C39.2198 22.8579 39.2032 22.8974 39.1672 22.9289C39.134 22.9579 39.0842 22.9736 39.0205 22.9736H37.4925C37.4261 22.9684 37.3763 22.95 37.3375 22.9132Z" fill="#0D3F7A"/>
<path d="M42.3836 22.7948C42.3836 22.8448 42.3615 22.8921 42.32 22.9289C42.2785 22.9684 42.2314 22.9868 42.1788 22.9868C42.1207 22.9868 42.0709 22.9631 42.0293 22.9132L41.1269 21.811L40.2217 22.9132C40.1802 22.9605 40.1331 22.9868 40.0778 22.9868C40.0252 22.9868 39.9781 22.9658 39.9366 22.9289C39.8951 22.8895 39.8729 22.8448 39.8729 22.7948C39.8729 22.7527 39.8896 22.7106 39.9227 22.6685L40.8778 21.519L39.9698 20.4222C39.9366 20.388 39.92 20.3459 39.92 20.2959C39.92 20.2459 39.9394 20.1986 39.9809 20.1618C40.0224 20.1223 40.0667 20.1039 40.1193 20.1039C40.1774 20.1039 40.2272 20.1276 40.2688 20.1776L41.1269 21.2297L41.9851 20.1776C42.0238 20.1302 42.0736 20.1039 42.1345 20.1039C42.1871 20.1039 42.2342 20.1223 42.2757 20.1618C42.3172 20.2012 42.3394 20.2459 42.3394 20.2959C42.3394 20.3406 42.32 20.3827 42.284 20.4222L41.3761 21.519L42.3283 22.6685C42.3671 22.7054 42.3836 22.7474 42.3836 22.7948Z" fill="#0D3F7A"/>
<path d="M43.3221 22.9316C43.2834 22.8948 43.264 22.8421 43.264 22.779V20.3249C43.264 20.2618 43.2834 20.2144 43.3194 20.1776C43.3554 20.1408 43.408 20.1223 43.4744 20.1223H44.4737C44.7837 20.1223 45.0246 20.196 45.1962 20.3433C45.3678 20.4906 45.4536 20.701 45.4536 20.972C45.4536 21.2402 45.3678 21.4506 45.1962 21.6006C45.0246 21.7505 44.7837 21.8268 44.4737 21.8268H43.6903V22.7764C43.6903 22.8421 43.671 22.8921 43.635 22.9289C43.599 22.9658 43.5436 22.9842 43.4744 22.9842C43.4135 22.9868 43.3609 22.9684 43.3221 22.9316ZM45.0467 20.9746C45.0467 20.63 44.8419 20.459 44.4322 20.459H43.6931V21.4954H44.4322C44.8419 21.4954 45.0467 21.3218 45.0467 20.9746Z" fill="#0D3F7A"/>
<path d="M46.4639 22.9132C46.4252 22.8763 46.4086 22.829 46.4086 22.7658V20.3249C46.4086 20.2618 46.4279 20.2144 46.4639 20.1776C46.4999 20.1408 46.5525 20.1223 46.619 20.1223H48.147C48.2107 20.1223 48.2605 20.1381 48.2937 20.1671C48.3269 20.196 48.3463 20.2381 48.3463 20.2933C48.3463 20.3485 48.3297 20.388 48.2937 20.4169C48.2577 20.4459 48.2107 20.459 48.147 20.459H46.8266V21.3559H48.064C48.1276 21.3559 48.1774 21.3718 48.2107 21.4007C48.2438 21.4296 48.2633 21.4717 48.2633 21.5269C48.2633 21.5796 48.2466 21.6216 48.2107 21.6532C48.1747 21.6848 48.1276 21.6979 48.064 21.6979H46.8266V22.637H48.147C48.2798 22.637 48.3463 22.6922 48.3463 22.8027C48.3463 22.8579 48.3297 22.8974 48.2937 22.9289C48.2605 22.9579 48.2107 22.9736 48.147 22.9736H46.619C46.5525 22.9684 46.5027 22.95 46.4639 22.9132Z" fill="#0D3F7A"/>
<path d="M51.5931 22.8211C51.5931 22.8684 51.5738 22.9105 51.5322 22.9447C51.4907 22.9789 51.4464 22.9947 51.3938 22.9947C51.3163 22.9947 51.2554 22.9605 51.2084 22.8948L50.652 22.0557C50.5883 21.9583 50.5191 21.8899 50.4499 21.8531C50.3779 21.8136 50.2838 21.7952 50.1675 21.7952H49.6969V22.779C49.6969 22.8448 49.6776 22.8948 49.6416 22.9316C49.6028 22.9684 49.553 22.9868 49.4865 22.9868C49.4229 22.9868 49.3703 22.9684 49.3315 22.9316C49.2928 22.8948 49.2734 22.8421 49.2734 22.779V20.3249C49.2734 20.2618 49.2928 20.2144 49.3288 20.1776C49.3647 20.1408 49.4173 20.1223 49.4838 20.1223H50.5163C50.8402 20.1223 51.0866 20.1933 51.2582 20.3328C51.427 20.4722 51.5129 20.6773 51.5129 20.9456C51.5129 21.1692 51.4464 21.3507 51.3163 21.4875C51.1862 21.6269 51.0007 21.7137 50.7599 21.7505C50.8319 21.7689 50.8956 21.8032 50.9537 21.8505C51.0118 21.8979 51.0699 21.9662 51.1253 22.053L51.5516 22.708C51.582 22.7448 51.5931 22.7816 51.5931 22.8211ZM50.4693 21.4586C50.6852 21.4586 50.8458 21.4165 50.9481 21.3349C51.0534 21.2534 51.1032 21.1271 51.1032 20.9535C51.1032 20.7799 51.0506 20.6563 50.9481 20.5774C50.8458 20.4985 50.6852 20.459 50.4665 20.459H49.6914V21.4586H50.4693Z" fill="#0D3F7A"/>
<path d="M53.2489 22.9289C53.2073 22.8895 53.188 22.8395 53.188 22.7764V20.4696H52.3575C52.2246 20.4696 52.1582 20.4117 52.1582 20.2959C52.1582 20.2407 52.1748 20.196 52.2108 20.1671C52.2468 20.1381 52.2938 20.1223 52.3575 20.1223H54.4502C54.5139 20.1223 54.5637 20.1381 54.5969 20.1671C54.6301 20.196 54.6495 20.2407 54.6495 20.2959C54.6495 20.4117 54.5831 20.4696 54.4502 20.4696H53.6197V22.7764C53.6197 22.8395 53.6004 22.8895 53.5616 22.9289C53.5229 22.9684 53.4703 22.9868 53.4039 22.9868C53.3402 22.9868 53.2903 22.9684 53.2489 22.9289Z" fill="#0D3F7A"/>
</g>
<defs>
<clipPath id="clip0_2_1173">
<rect width="56" height="23" fill="white"/>
</clipPath>
</defs>
</svg>
