<svg width="102" height="44" viewBox="0 0 102 44" fill="none" xmlns="http://www.w3.org/2000/svg">
<path d="M2.53011 28.3018C2.41999 28.3073 2.30996 28.2894 2.20731 28.2491C2.10465 28.2089 2.01171 28.1473 1.93464 28.0685C1.78873 27.9181 1.70533 27.718 1.70131 27.5085C1.69996 27.275 1.78814 27.0499 1.94771 26.8794L6.24104 21.5128L7.24344 22.8437L3.15918 28.0218C3.08513 28.1163 2.98909 28.1912 2.87943 28.24C2.76978 28.2888 2.64985 28.31 2.53011 28.3018ZM11.7682 28.3018C11.611 28.3088 11.4546 28.2767 11.3128 28.2085C11.1714 28.1249 11.0483 28.0138 10.9506 27.8818L6.91491 22.7466L6.21678 22.14L2.15678 16.988C1.99457 16.8182 1.90485 16.5919 1.90664 16.357C1.91227 16.147 1.99006 15.9453 2.12691 15.7858C2.20343 15.7025 2.29762 15.6372 2.40258 15.5949C2.50754 15.5526 2.62063 15.5343 2.73358 15.5413C2.85966 15.5392 2.98485 15.5629 3.1014 15.6111C3.21795 15.6592 3.32338 15.7308 3.41118 15.8213L7.33117 20.837L7.96211 21.3504L12.304 26.9018C12.3931 26.9939 12.462 27.1036 12.5063 27.2238C12.5507 27.344 12.5695 27.4721 12.5616 27.6C12.5505 27.7008 12.5189 27.7984 12.4688 27.8866C12.4188 27.9749 12.3512 28.052 12.2704 28.1133C12.1287 28.2304 11.952 28.2968 11.7682 28.3018ZM7.98824 22.237L6.84584 21.0666L10.8816 15.9576C10.9633 15.8278 11.0769 15.7211 11.2115 15.6476C11.3461 15.5741 11.4973 15.5362 11.6506 15.5376C11.7636 15.5303 11.8768 15.5485 11.9818 15.5908C12.0868 15.6332 12.1809 15.6985 12.2573 15.7821C12.3968 15.9438 12.4684 16.1531 12.457 16.3664C12.4454 16.6006 12.3591 16.825 12.2106 17.0066L7.98824 22.237Z" fill="white"/>
<path d="M21.2621 28.4194C20.148 28.4378 19.0501 28.1521 18.0863 27.5929C17.1226 27.0337 16.3296 26.2224 15.7927 25.2461C15.2349 24.2322 14.9523 23.0898 14.9733 21.9327C14.9537 20.7647 15.2476 19.6128 15.8245 18.597C16.3786 17.631 17.1801 16.8301 18.1466 16.2767C19.1593 15.7184 20.2969 15.4255 21.4534 15.4255C22.6098 15.4255 23.7475 15.7184 24.7602 16.2767C25.7209 16.8332 26.5175 17.6336 27.0693 18.597C27.6463 19.6138 27.948 20.7636 27.9447 21.9327L27.2205 22.4927C27.2367 23.5519 26.9672 24.5959 26.4402 25.5149C25.9279 26.3976 25.192 27.1297 24.3066 27.6373C23.3804 28.1668 22.3287 28.4369 21.2621 28.4194ZM21.4487 26.7861C22.2964 26.8002 23.1317 26.582 23.8642 26.1551C24.57 25.7372 25.1503 25.1369 25.5442 24.4173C25.9499 23.65 26.162 22.7951 26.162 21.9271C26.162 21.0592 25.9499 20.2043 25.5442 19.437C25.1456 18.7209 24.5664 18.1217 23.8642 17.6991C23.131 17.2785 22.3005 17.0571 21.4553 17.0571C20.61 17.0571 19.7795 17.2785 19.0463 17.6991C18.3376 18.1209 17.7509 18.7198 17.3439 19.437C16.9296 20.2016 16.7126 21.0575 16.7126 21.9271C16.7126 22.7968 16.9296 23.6527 17.3439 24.4173C17.7504 25.1464 18.347 25.7517 19.0701 26.1689C19.7932 26.586 20.6159 26.7993 21.4506 26.7861H21.4487ZM27.0245 28.3018C26.9048 28.306 26.7856 28.2865 26.6734 28.2446C26.5613 28.2026 26.4586 28.139 26.3711 28.0573C26.286 27.9741 26.2192 27.8739 26.1751 27.7633C26.1311 27.6527 26.1107 27.5341 26.1154 27.4151V23.4261L26.5578 21.5837L27.9354 21.9327V27.4133C27.9401 27.5324 27.9197 27.6512 27.8753 27.7619C27.8309 27.8726 27.7636 27.9726 27.6778 28.0554C27.5904 28.1374 27.4878 28.2014 27.3757 28.2437C27.2636 28.286 27.1442 28.3057 27.0245 28.3018Z" fill="white"/>
<path d="M33.5094 28.3019C33.3878 28.3081 33.2663 28.2897 33.1521 28.2476C33.0379 28.2056 32.9334 28.1409 32.8448 28.0574C32.7628 27.9724 32.6988 27.8717 32.6568 27.7614C32.6147 27.651 32.5955 27.5333 32.6003 27.4153V16.4505C32.5904 16.3286 32.6072 16.206 32.6494 16.0912C32.6916 15.9765 32.7582 15.8722 32.8447 15.7858C32.9311 15.6993 33.0354 15.6327 33.1501 15.5905C33.2649 15.5483 33.3875 15.5315 33.5094 15.5414C33.6274 15.5364 33.7452 15.5555 33.8556 15.5976C33.966 15.6396 34.0667 15.7037 34.1515 15.7859C34.2352 15.8743 34.3 15.9788 34.342 16.0931C34.3841 16.2073 34.4024 16.3289 34.396 16.4505V27.4134C34.4028 27.5316 34.3845 27.6499 34.3423 27.7606C34.3002 27.8712 34.2351 27.9717 34.1514 28.0554C34.0676 28.1391 33.9672 28.2042 33.8565 28.2464C33.7459 28.2885 33.6276 28.3068 33.5094 28.3001V28.3019ZM43.5408 28.3019C43.4203 28.3059 43.3002 28.2852 43.1878 28.2413C43.0755 28.1973 42.9733 28.1309 42.8875 28.0462C42.8043 27.9639 42.7387 27.8655 42.6947 27.757C42.6508 27.6486 42.6293 27.5323 42.6318 27.4153V21.3505C42.6318 20.3854 42.4451 19.5939 42.083 18.9705C41.7355 18.3656 41.2156 17.8782 40.5896 17.5705C39.9241 17.2518 39.1938 17.0921 38.456 17.1038C37.7431 17.0938 37.0372 17.2457 36.3915 17.5481C35.8075 17.8176 35.3047 18.2361 34.9336 18.7614C34.5758 19.2738 34.3878 19.8855 34.396 20.5105H33.1136C33.1312 19.5816 33.4058 18.6757 33.907 17.8934C34.4008 17.1268 35.0834 16.5001 35.8894 16.0734C36.7371 15.625 37.6838 15.3965 38.6427 15.4089C39.6718 15.3914 40.6893 15.628 41.6051 16.0977C42.4745 16.5557 43.1918 17.2568 43.6696 18.1155C44.1749 19.0028 44.4275 20.0836 44.4275 21.3579V27.4134C44.4293 27.5303 44.4075 27.6464 44.3636 27.7548C44.3196 27.8632 44.2544 27.9616 44.1717 28.0443C44.089 28.127 43.9906 28.1922 43.8822 28.2362C43.7738 28.2801 43.6577 28.3018 43.5408 28.3001V28.3019Z" fill="white"/>
<path d="M87.1181 28.4419C86.0893 28.459 85.072 28.2231 84.1557 27.7549C83.2855 27.2962 82.5681 26.5936 82.0912 25.7333C81.5859 24.8485 81.3333 23.7677 81.3333 22.4909V16.428C81.3321 16.3112 81.3541 16.1953 81.3982 16.0872C81.4424 15.9791 81.5076 15.8808 81.5902 15.7982C81.6728 15.7156 81.771 15.6504 81.8792 15.6063C81.9873 15.5622 82.1032 15.5401 82.22 15.5413C82.3407 15.5375 82.4609 15.5584 82.5732 15.6027C82.6856 15.647 82.7877 15.7138 82.8733 15.7989C82.9565 15.8808 83.0222 15.9789 83.0661 16.087C83.1101 16.1952 83.1315 16.3112 83.129 16.428V22.4928C83.129 23.4572 83.312 24.2506 83.6778 24.8728C84.0252 25.4776 84.5452 25.9651 85.1712 26.2728C85.8364 26.5923 86.5669 26.7521 87.3048 26.7395C88.0179 26.7498 88.7241 26.5972 89.3693 26.2933C89.9524 26.0233 90.455 25.6057 90.8272 25.0819C91.1853 24.5689 91.3734 23.9565 91.3648 23.3309H92.6472C92.6211 24.253 92.3503 25.1516 91.8625 25.9346C91.3748 26.7175 90.6876 27.3567 89.8714 27.7866C89.0229 28.2318 88.0762 28.4571 87.1181 28.4419ZM87.3757 13.8819C86.6724 13.8929 85.974 13.7621 85.3224 13.4973C84.7601 13.2733 84.2656 12.9073 83.8869 12.4352C83.5445 12.0044 83.3595 11.4697 83.3624 10.9195C83.3596 10.8034 83.3798 10.6879 83.4218 10.5796C83.4638 10.4714 83.5267 10.3724 83.6069 10.2885C83.6827 10.2066 83.7749 10.1415 83.8775 10.0974C83.9801 10.0533 84.0907 10.0313 84.2024 10.0328C84.316 10.029 84.429 10.0499 84.5338 10.0941C84.6385 10.1382 84.7324 10.2046 84.809 10.2885C84.9727 10.4839 85.056 10.7341 85.0424 10.9885C85.0424 11.4234 85.2682 11.7744 85.7181 12.0376C86.2332 12.299 86.8027 12.4352 87.3804 12.4352C87.958 12.4352 88.5275 12.299 89.0426 12.0376C89.4869 11.7744 89.7072 11.4234 89.7072 10.9885C89.6933 10.7318 89.782 10.48 89.9536 10.2885C90.0312 10.2077 90.1244 10.1434 90.2276 10.0995C90.3307 10.0556 90.4416 10.033 90.5537 10.033C90.6658 10.033 90.7767 10.0556 90.8798 10.0995C90.983 10.1434 91.0762 10.2077 91.1538 10.2885C91.3096 10.4612 91.3931 10.687 91.3872 10.9195C91.391 11.4698 91.2058 12.0049 90.8626 12.4352C90.4843 12.9077 89.9897 13.2737 89.4272 13.4973C88.7764 13.7634 88.0787 13.8955 87.3757 13.8856V13.8819ZM92.2533 28.3018C92.1353 28.3068 92.0175 28.2877 91.9071 28.2457C91.7967 28.2036 91.696 28.1395 91.6112 28.0573C91.5273 27.969 91.4624 27.8646 91.4203 27.7503C91.3783 27.636 91.36 27.5144 91.3666 27.3928V16.428C91.3599 16.3098 91.3782 16.1915 91.4203 16.0808C91.4625 15.9702 91.5276 15.8697 91.6113 15.786C91.695 15.7022 91.7955 15.6372 91.9061 15.595C92.0168 15.5528 92.1351 15.5345 92.2533 15.5413C92.4948 15.5333 92.7297 15.6212 92.9066 15.7858C92.9918 15.869 93.0586 15.9692 93.1026 16.0798C93.1467 16.1904 93.167 16.309 93.1624 16.428V27.3928C93.1683 27.5152 93.1487 27.6376 93.1046 27.752C93.0606 27.8665 92.9932 27.9704 92.9066 28.0573C92.7297 28.2219 92.4948 28.3098 92.2533 28.3018Z" fill="white"/>
<path d="M98.9454 28.3019C98.5866 28.3014 98.2427 28.1587 97.989 27.905C97.7353 27.6513 97.5925 27.3074 97.592 26.9486C97.5878 26.7667 97.6209 26.586 97.6893 26.4174C97.7577 26.2488 97.8599 26.0961 97.9896 25.9686C98.1136 25.8411 98.2623 25.7402 98.4267 25.6721C98.591 25.6041 98.7675 25.5703 98.9454 25.5729C99.1246 25.5706 99.3024 25.6058 99.4673 25.6762C99.6322 25.7466 99.7806 25.8506 99.903 25.9817C100.03 26.1081 100.131 26.2589 100.199 26.425C100.267 26.5911 100.301 26.7691 100.299 26.9486C100.299 27.1264 100.264 27.3025 100.196 27.4668C100.128 27.6311 100.029 27.7804 99.9029 27.9061C99.7771 28.0318 99.6279 28.1315 99.4636 28.1994C99.2993 28.2673 99.1232 28.3022 98.9454 28.3019ZM98.9454 24.1729C98.7047 24.1714 98.4744 24.0751 98.3042 23.905C98.134 23.7348 98.0378 23.5044 98.0363 23.2638V10.9867C98.0334 10.8636 98.0555 10.7412 98.1014 10.627C98.1473 10.5128 98.216 10.409 98.3032 10.3222C98.3863 10.2359 98.4861 10.1676 98.5965 10.1214C98.7069 10.0751 98.8257 10.052 98.9454 10.0534C99.0671 10.0496 99.1882 10.0717 99.3008 10.118C99.4133 10.1643 99.5149 10.2339 99.5987 10.3222C99.6836 10.4103 99.7501 10.5145 99.7943 10.6286C99.8385 10.7426 99.8596 10.8644 99.8563 10.9867V23.2582C99.8575 23.3786 99.8331 23.4979 99.7849 23.6083C99.7366 23.7187 99.6655 23.8175 99.5763 23.8985C99.4946 23.9838 99.3967 24.0519 99.2884 24.0991C99.1801 24.1462 99.0635 24.1713 98.9454 24.1729Z" fill="white"/>
<path d="M47.3152 25.7557C46.9848 26.7301 46.6003 27.7381 46.2979 28.7704C45.6799 30.8009 45.7654 32.9806 46.5405 34.9565C47.3208 36.9893 48.7805 38.5256 50.6808 39.6661C53.3688 41.311 56.4523 42.1967 59.6035 42.2291C62.0077 42.2477 64.0163 41.432 65.7635 39.9387C68.4851 37.6109 71.2907 35.3709 74.0515 33.0824C75.416 31.9512 76.7637 30.8013 78.1115 29.6514C78.6859 29.2023 79.064 28.5479 79.1661 27.8258C79.28 26.8925 78.6211 26.0133 77.656 25.7035C76.5845 25.36 75.6157 25.5691 74.7365 26.0563C73.0565 26.9896 71.3989 27.9677 69.7544 28.9589C69.0245 29.3976 68.3432 29.9053 67.6507 30.3963C67.5525 30.472 67.436 30.5203 67.313 30.5364C67.19 30.5525 67.065 30.5357 66.9507 30.4877L59.2973 27.7811L49.8651 24.4267C49.3835 24.2568 48.9019 24.0888 48.4221 23.917C48.2877 23.8704 48.1776 23.8349 48.1048 24.0011C47.8547 24.5779 47.5933 25.1435 47.3152 25.7557Z" fill="#F6D20B"/>
<path d="M62.8141 35.8843C71.0595 35.8843 77.7437 29.2001 77.7437 20.9547C77.7437 12.7094 71.0595 6.02515 62.8141 6.02515C54.5687 6.02515 47.8845 12.7094 47.8845 20.9547C47.8845 29.2001 54.5687 35.8843 62.8141 35.8843Z" fill="#F5F6F6" stroke="#3A85C6" stroke-width="1.02" stroke-miterlimit="10"/>
<path d="M70.5495 4.2275C70.2378 4.3588 69.9577 4.5551 69.7278 4.80328C69.498 5.05146 69.3237 5.34582 69.2167 5.6667C68.6144 7.23096 68.0196 8.79834 67.4322 10.3688C67.0458 11.4067 67.1783 12.3811 68.009 13.1371C68.8397 13.8931 69.8271 14.1507 70.9023 13.7438C71.2321 13.6126 71.5292 13.411 71.7729 13.153C72.0167 12.8951 72.2012 12.5871 72.3135 12.2504C72.9258 10.6432 73.5455 9.03976 74.1447 7.42696C74.258 7.11452 74.3079 6.78262 74.2914 6.45067C74.2749 6.11872 74.1924 5.7934 74.0486 5.49374C73.9049 5.19408 73.7028 4.92609 73.4542 4.70547C73.2057 4.48484 72.9156 4.316 72.601 4.20883C71.8002 3.9195 71.2234 3.92323 70.5495 4.2275Z" fill="#3A85C6"/>
<path d="M59.2954 1.97253C59.0264 2.08553 58.7843 2.25424 58.5851 2.46755C58.386 2.68087 58.2342 2.93395 58.14 3.21013C57.6148 4.5504 57.0971 5.89377 56.5869 7.24026C56.2509 8.12879 56.3629 8.9632 57.076 9.6072C57.789 10.2512 58.6384 10.4677 59.5661 10.1149C59.8504 10.0025 60.1069 9.8296 60.3177 9.60815C60.5285 9.38671 60.6886 9.12205 60.7869 8.83253C61.3208 7.45493 61.8602 6.08106 62.3829 4.69973C62.4816 4.43286 62.5256 4.14888 62.5123 3.86467C62.499 3.58045 62.4287 3.30181 62.3056 3.0453C62.1825 2.78879 62.0091 2.55966 61.7956 2.37152C61.5822 2.18338 61.3331 2.04007 61.0632 1.95013C60.3725 1.7056 59.876 1.7112 59.2954 1.97253Z" fill="#3A85C6"/>
<path d="M75.6233 7.83569C75.3321 7.95826 75.0701 8.14104 74.8545 8.37203C74.639 8.60302 74.4747 8.877 74.3726 9.17596C73.8039 10.6282 73.2439 12.0842 72.6926 13.544C72.3286 14.5072 72.4499 15.4106 73.2227 16.1106C73.9955 16.8106 74.9177 17.044 75.9219 16.6706C76.2301 16.548 76.508 16.36 76.7364 16.1196C76.9649 15.8792 77.1386 15.5921 77.2454 15.2781C77.8241 13.7848 78.4102 12.2914 78.9739 10.7981C79.0823 10.5085 79.1311 10.2001 79.1174 9.89122C79.1037 9.58236 79.0279 9.27943 78.8944 9.00058C78.7609 8.72172 78.5725 8.47267 78.3404 8.26834C78.1084 8.06402 77.8376 7.90861 77.5441 7.81143C76.7918 7.5445 76.2542 7.55009 75.6233 7.83569Z" fill="#3A85C6"/>
<path d="M68.5168 3.95873C67.9027 2.59233 66.2395 1.94086 64.9702 2.51206C64.6745 2.6403 64.4076 2.82669 64.1854 3.06014C63.9631 3.29359 63.7901 3.56934 63.6766 3.871C63.0344 5.54477 62.3979 7.22477 61.767 8.911C61.3544 10.0161 61.9144 11.3134 63.0419 11.8977C64.3262 12.5715 65.7654 12.2057 66.4915 11.0185C66.5722 10.8801 66.6397 10.7345 66.6931 10.5835C67.3054 8.97819 67.9152 7.37162 68.5224 5.7638C68.6449 5.47851 68.7076 5.17114 68.7066 4.86068C68.7057 4.55022 68.6411 4.24325 68.5168 3.95873Z" fill="#3A85C6"/>
<path d="M62.6966 28.3019C61.668 28.3147 60.6466 28.1303 59.6875 27.7587C58.8016 27.412 57.9969 26.8858 57.3243 26.2131C56.6516 25.5404 56.1253 24.7358 55.7787 23.8499C55.0541 21.9112 55.0541 19.776 55.7787 17.8374C56.1232 16.9489 56.6486 16.1417 57.3215 15.4669C57.9943 14.7921 58.8 14.2645 59.6875 13.9174C61.6262 13.1927 63.7613 13.1927 65.7 13.9174C66.59 14.2625 67.3982 14.7893 68.0731 15.4642C68.7481 16.1392 69.2749 16.9474 69.62 17.8374C69.9919 18.7938 70.177 19.8128 70.1651 20.839C70.1773 21.652 70.051 22.4613 69.7918 23.232C69.5943 23.8485 69.2481 24.4069 68.7838 24.8579C68.3812 25.2406 67.8458 25.4521 67.2904 25.4478C66.8373 25.4648 66.3955 25.3032 66.0603 24.9979C65.9018 24.8482 65.7771 24.6663 65.6947 24.4644C65.6123 24.2625 65.574 24.0454 65.5824 23.8275V23.2675C65.3865 23.5913 65.1291 23.8735 64.8246 24.0982C64.5057 24.3354 64.1534 24.5241 63.7792 24.6582C63.4139 24.7926 63.0279 24.8621 62.6387 24.8635C61.9208 24.8761 61.2123 24.6983 60.5854 24.3483C59.9942 24.0133 59.5096 23.5184 59.1872 22.9203C58.8449 22.2775 58.6727 21.5578 58.687 20.8296C58.6726 20.1026 58.8503 19.3847 59.2022 18.7483C59.5373 18.1522 60.0283 17.6585 60.6227 17.3203C61.2631 16.9772 61.9784 16.7976 62.705 16.7976C63.4315 16.7976 64.1468 16.9772 64.7872 17.3203C65.3816 17.6585 65.8726 18.1522 66.2078 18.7483C66.5596 19.3847 66.7373 20.1026 66.723 20.8296V23.3627C66.7045 23.6075 66.7639 23.8519 66.8928 24.0608C66.9473 24.1356 67.0195 24.1957 67.1029 24.2358C67.1863 24.2758 67.2783 24.2946 67.3707 24.2904C67.5359 24.2852 67.6977 24.2427 67.8442 24.1661C67.9906 24.0895 68.1178 23.9808 68.2163 23.848C68.499 23.4886 68.7002 23.0721 68.8062 22.6272C68.9561 22.04 69.0277 21.4356 69.019 20.8296C69.0284 19.9616 68.8713 19.0998 68.556 18.291C68.2615 17.5409 67.8154 16.8597 67.2456 16.2899C66.6758 15.7201 65.9946 15.274 65.2446 14.9795C63.6026 14.3623 61.7924 14.3623 60.1504 14.9795C59.4016 15.2747 58.7208 15.7193 58.1494 16.2862C57.5803 16.8558 57.1354 17.5371 56.8427 18.2872C56.2353 19.931 56.2353 21.7376 56.8427 23.3814C57.1329 24.1319 57.5767 24.8134 58.1456 25.3824C58.7146 25.9514 59.3962 26.3952 60.1467 26.6854C61.3965 27.1617 62.756 27.273 64.0667 27.0064C64.4856 26.9302 64.8932 26.8016 65.28 26.6238C65.3733 26.5676 65.4783 26.5338 65.5868 26.525C65.6953 26.5163 65.8043 26.5328 65.9054 26.5734C65.9908 26.6252 66.0594 26.7008 66.1025 26.791C66.1456 26.8812 66.1614 26.982 66.148 27.0811C66.148 27.2864 66.0024 27.4824 65.7075 27.6691C65.3283 27.8886 64.915 28.0432 64.4848 28.1264C63.897 28.2504 63.2973 28.3092 62.6966 28.3019ZM62.6966 23.7099C63.2171 23.7212 63.7317 23.5971 64.1899 23.3496C64.6156 23.1146 64.9672 22.7655 65.2054 22.3416C65.4592 21.8821 65.588 21.3639 65.5787 20.839C65.588 20.317 65.4592 19.8018 65.2054 19.3456C64.9661 18.9206 64.6149 18.5694 64.1899 18.3302C63.7291 18.0889 63.2167 17.9629 62.6966 17.9629C62.1764 17.9629 61.664 18.0889 61.2032 18.3302C60.7793 18.5683 60.4302 18.92 60.1952 19.3456C59.9475 19.8037 59.8233 20.3183 59.835 20.839C59.8233 21.3625 59.9474 21.8802 60.1952 22.3416C60.4293 22.7661 60.7788 23.1155 61.2032 23.3496C61.6617 23.5962 62.1761 23.7203 62.6966 23.7099Z" fill="#684EA0"/>
<mask id="mask0_8_517" style="mask-type:luminance" maskUnits="userSpaceOnUse" x="54" y="24" width="26" height="17">
<path d="M73.9731 25.7539L67.9624 30.3253C62.5491 33.2859 60.3931 28.4755 54.4552 33.5621C54.108 33.8589 66.1723 40.3531 66.2152 40.3531C66.2582 40.3531 79.4014 29.28 79.4014 29.28L79.9334 24.2643L73.9731 25.7539Z" fill="white"/>
</mask>
<g mask="url(#mask0_8_517)">
<path d="M49.2099 26.2803C48.8777 27.2453 48.4969 28.2459 48.1889 29.2669C47.5633 31.2454 47.5881 33.3722 48.2598 35.3355C48.9318 37.3123 50.2422 38.7832 51.9819 39.8565C54.4382 41.4036 57.2928 42.1997 60.1953 42.1469C62.4353 42.1059 64.3019 41.2528 65.967 39.7445C68.5505 37.3907 71.2105 35.1189 73.8294 32.8024C75.1249 31.6563 76.4054 30.4933 77.6859 29.3304C78.2347 28.8665 78.5979 28.2204 78.7089 27.5104C78.7659 27.0639 78.6617 26.6117 78.415 26.2353C78.1682 25.8588 77.7952 25.5829 77.363 25.4571C76.3774 25.1453 75.4721 25.3768 74.6451 25.8771C73.0585 26.8365 71.4979 27.8389 69.9467 28.8525C69.2598 29.3024 68.6139 29.8195 67.9587 30.3179C67.8705 30.394 67.7631 30.4443 67.6482 30.4634C67.5333 30.4825 67.4153 30.4696 67.3072 30.4261C64.964 29.6011 62.6207 28.7791 60.2774 27.9603L51.6049 24.912C51.1643 24.7552 50.7201 24.604 50.2795 24.4472C50.1563 24.4043 50.0536 24.3725 49.9827 24.5368C49.74 25.1117 49.4843 25.6717 49.2099 26.2803Z" fill="#F6D20B"/>
</g>
</svg>
